# xmcd CD database file
#
# Track frame offsets:
#	150
#	15012
#	29631
#	44054
#	57574
#	70647
#	85423
#	98506
#	128991
#	144543
#	176919
#	193862
#	214398
#
# Disc length: 3089 seconds
#
# Revision: 0
# Processed by: cddbd v1.5.2PL0 Copyright (c) Steve Scherf et al.
# Submitted via: CDex 1.70beta2
#
DISCID=c10c0f0d
DTITLE=Chillout Jazz Lounge - Moonlightning
DYEAR=2007
DGENRE=Jazz
TTITLE0=Jean-Marc Levier - A Short Romance
TTITLE1=The Soul Brigade - Funk-E-Motions
TTITLE2=Jean-Marc Levier - Talk To Me
TTITLE3=Beating Pulse Band - Head Hunter
TTITLE4=Pete Dunn - Summertime
TTITLE5=Beating Pulse Band - Got Groove?
TTITLE6=Jean-Marc Levier - Good Day, Good Night
TTITLE7=The Jimmy Live Quartet - About Jammin´
TTITLE8=Pete Dunn - How Insensitive
TTITLE9=The Jimmy Live Quartet - In The Distance
TTITLE10=Silver Fox - On A Lighter Note
TTITLE11=Clay Smith - Time Regained
TTITLE12=Clay Smith - Moonlightning
EXTD=YEAR: 2007
EXTT0=
EXTT1=
EXTT2=
EXTT3=
EXTT4=
EXTT5=
EXTT6=
EXTT7=
EXTT8=
EXTT9=
EXTT10=
EXTT11=
EXTT12=
PLAYORDER=
